<svg width="352" height="148" viewBox="0 0 352 148" fill="none" xmlns="http://www.w3.org/2000/svg">
<path d="M321.513 88.2145C321.459 88.0863 321.504 87.9902 321.641 87.9261C321.706 87.9164 321.77 87.9036 321.834 87.894M328.885 96.067C328.885 95.9805 328.917 95.9068 328.981 95.8427C329.045 95.7785 329.119 95.7465 329.205 95.7465M339.462 98.9516L342.987 97.0285M334.814 92.7017L336.096 92.2209M349.558 94.3042L351 93.5029M332.09 101.996L334.334 100.875M326 104.721L324.398 105.202M322.635 99.2721L323.436 98.9516M217.027 19.1286L218.149 18.8081M223.597 24.2728L224.719 23.6317M214.783 28.2791L215.264 29.2407M232.732 31.8047L234.174 31.324M230.969 20.4106L232.732 19.2888M225.681 33.7278L226.482 33.4073M260.136 18.8081L262.219 18.0068M258.854 7.26969L260.777 6.46842M240.424 14.1607L241.386 13.8402M247.155 11.2761L248.277 10.7953M242.508 27.3176L243.95 26.5163M261.257 29.0804L263.341 27.9586M251.963 22.1734L253.068 21.6927M278.565 12.7184L280.167 12.2376M269.43 16.244L269.911 15.7632M275.68 32.9265L278.244 31.8047M269.751 26.3561L270.712 26.0356M283.693 29.2407L284.494 28.5996M277.123 23.6317L278.565 23.1349M61.195 89.6568C59.0155 86.0447 57.9995 82.1408 58.1501 77.9422C58.3008 73.6473 59.5187 69.6826 61.8039 66.0512C63.9834 62.5801 66.8776 59.9199 70.4898 58.0705C74.1019 56.234 77.8615 54.7949 81.7717 53.7597C82.7429 53.5033 83.6948 53.1603 84.6242 52.734C88.3101 51.077 91.4287 48.686 93.9831 45.5546C95.6594 43.4809 97.1979 41.2854 98.5985 38.9681C99.3773 37.6765 100.339 36.5259 101.483 35.5227C104.345 33.0002 107.509 30.8977 110.97 29.2086C114.624 27.4458 118.432 26.1221 122.396 25.2343C124.265 24.7856 126.143 24.3625 128.031 23.9619M128.031 23.9619C129.435 20.026 131.406 16.4235 133.935 13.1511C136.105 10.3851 138.592 7.94918 141.396 5.84342M128.031 23.9619L128.198 23.9362M128.031 23.9619L127.095 26.2215L127.4 26.183M141.396 5.84342C144.521 3.70562 147.915 2.16397 151.579 1.21205C154.422 0.506931 157.268 0.436419 160.12 1.00372C160.976 1.18641 161.784 1.45885 162.55 1.82743L162.588 1.75372M141.396 5.84342L141.339 6.14791M68.5667 98.3106C70.5442 94.9997 72.791 91.8587 75.3134 88.8876C78.0602 85.6504 80.9704 82.5639 84.0473 79.6248C86.8999 76.9101 89.855 74.33 92.9094 71.8845C95.8677 69.5224 98.8325 67.1955 101.804 64.8974C104.582 62.7404 107.236 60.4263 109.768 57.9584C112.685 55.1379 115.217 52.0129 117.364 48.5834C118.368 46.9809 119.287 45.3559 120.121 43.7117C121.98 40.0258 123.928 36.3944 125.97 32.8143C128.012 29.2471 130.201 25.7407 132.541 22.3016C134.839 18.9138 137.412 15.7568 140.265 12.8305C142.412 10.619 144.697 8.55173 147.124 6.62867M101.916 105.859V105.724L97.887 104.948L85.4416 104.413C83.8294 104.355 82.214 104.33 80.6019 104.339C76.4352 104.381 72.8936 102.859 69.9769 99.7721C69.775 99.5702 69.5507 99.4356 69.3039 99.3715C66.2815 98.7849 64.2014 97.0734 63.0635 94.2369L61.195 89.8203L66.6276 86.4709C66.1052 82.2306 66.602 78.1377 68.118 74.1954C69.6564 70.189 72.0442 66.7532 75.2814 63.891C78.3358 61.1763 81.4256 58.5481 84.5441 56.0065C87.6755 53.4648 90.8486 50.9584 94.0633 48.4905C96.5536 46.5995 98.8773 44.4681 101.034 42.0963C101.941 41.0803 102.909 40.1508 103.935 39.3079C107.066 36.7214 110.432 34.5387 114.031 32.7535C117.534 31.0451 121.204 29.9874 125.041 29.5804L127.092 26.2215C123.246 26.7727 119.502 27.7503 115.858 29.1605C112.14 30.6124 108.752 32.6285 105.698 35.2021C102.611 37.8399 99.778 40.7374 97.2043 43.888C96.2331 45.0835 95.1851 46.2277 94.0633 47.3174C91.0729 50.1924 87.7973 52.734 84.2396 54.9456C81.3006 56.7629 78.2685 58.4007 75.1372 59.8654C72.6917 60.9872 70.5154 62.5032 68.6148 64.4166C65.602 67.4519 63.6469 71.0608 62.7494 75.2499C61.82 79.5864 62.5315 83.6408 64.8808 87.4132M128.037 21.3721L114.416 24.417M69.2077 83.7274C69.2077 79.5191 70.1628 75.5544 72.0763 71.8364C73.9993 68.1089 76.6596 65.0096 80.057 62.5417C82.3871 60.843 84.7268 59.1667 87.0761 57.5096C90.3998 55.1603 93.6787 52.7244 96.9158 50.202C100.24 47.6283 103.31 44.779 106.13 41.6604C107.614 40.0034 109.304 38.5771 111.195 37.3816C114.634 35.2021 118.4 33.9906 122.486 33.7438M122.486 33.7438L125.041 29.5772M122.486 33.7438L118.095 41.6124M77.541 103.615C78.0762 100.442 79.2172 97.5189 80.9704 94.8491C83.1595 91.5062 85.5601 88.3491 88.1659 85.378C89.8646 83.4229 91.73 81.628 93.7588 79.9934C96.8773 77.471 99.9927 74.9454 103.102 72.4134C106.22 69.8717 109.329 67.3237 112.428 64.7692C115.698 62.0865 118.678 59.0898 121.371 55.7789C124.041 52.4873 126.361 48.9584 128.326 45.186C130.249 41.5002 132.326 37.9008 134.56 34.3848C136.794 30.8817 139.149 27.4522 141.627 24.0965C144.063 20.8048 147.002 18.0709 150.441 15.8914C152.781 14.4171 155.313 13.6543 158.037 13.5998C160.29 13.5453 162.284 14.2793 164.015 15.7953C167.082 18.4972 169.149 21.8369 170.216 25.8112C171.284 29.7439 172.579 33.606 174.095 37.3976C175.633 41.2534 177.774 44.7309 180.521 47.8302C183.191 50.8334 185.915 53.7853 188.694 56.6923C191.098 59.1827 193.453 61.7083 195.761 64.2724C196.059 64.5929 196.3 64.9615 196.482 65.3782C198.075 68.9358 199.303 72.6121 200.168 76.4037C200.928 79.7466 201.658 83.128 202.364 86.5479C202.822 88.769 203.463 90.9164 204.287 92.9901C205.194 95.2978 205.742 97.7016 205.928 100.202M205.928 100.202L213.45 98.5446C212.873 97.3971 212.296 96.2497 211.719 95.1055C209.966 91.6215 208.082 88.2081 206.062 84.8652C205.719 84.3107 205.476 83.7178 205.325 83.0864C204.748 80.596 204.258 78.112 203.851 75.6345C203.328 72.3653 202.36 69.1987 200.95 66.1314C199.989 64.0481 198.732 62.1635 197.184 60.4744C194.396 57.452 191.585 54.4488 188.755 51.468C186.393 48.9681 184.389 46.2181 182.745 43.2149C180.78 39.6252 179.13 35.8528 177.793 31.9009C176.639 28.4714 175.559 25.0003 174.556 21.4843C174.194 20.2119 173.787 18.9587 173.338 17.7183C171.864 13.6254 169.066 10.7793 164.941 9.17673C162.88 8.35302 160.758 8.09661 158.579 8.40751C155.127 8.92994 151.954 10.212 149.06 12.2536C145.749 14.5613 142.899 17.3401 140.518 20.5869C138.073 23.9426 135.72 27.3593 133.467 30.8432C131.191 34.3464 129.018 37.9008 126.944 41.5002C124.884 45.0578 122.601 48.4937 120.102 51.8046C118.009 54.561 115.768 57.2276 113.387 59.8013C110.685 62.7083 107.826 65.4359 104.813 67.9903C101.727 70.6185 98.5408 73.1345 95.262 75.5383C92.6338 77.4614 90.1178 79.4742 87.714 81.58C84.6787 84.2498 82.0409 87.2786 79.7974 90.6664C77.5442 94.0542 75.775 97.676 74.4929 101.532M205.928 100.202L199.678 101.019C198.393 98.0157 197.434 94.9036 196.803 91.676C196.61 90.7145 196.386 89.7626 196.13 88.8235C195.062 84.9453 193.918 81.1152 192.7 77.3332C191.633 73.9903 190.569 70.6506 189.511 67.3173C188.399 63.8013 186.553 60.7468 183.966 58.1507C183.155 57.3494 182.396 56.5161 181.691 55.6507C179.854 53.4071 178.107 51.077 176.45 48.6636C174.229 45.404 172.306 42.0034 170.681 38.4553C168.909 34.5675 167.595 30.5323 166.739 26.3561C165.883 22.1478 163.412 19.5036 159.319 18.4234C155.986 17.5485 153.021 18.2215 150.425 20.4427C147.262 23.1574 144.415 26.1894 141.883 29.5451C139.361 32.8785 137.204 36.4585 135.409 40.2822C133.637 44.0643 131.627 47.686 129.383 51.1475C127.14 54.609 124.666 57.9103 121.964 61.0513C119.646 63.766 117.034 66.1378 114.127 68.1666C110.675 70.58 107.31 73.0928 104.031 75.6986C100.74 78.3268 97.5312 81.0575 94.3998 83.8876C91.4415 86.5703 88.855 89.5767 86.6435 92.91C84.4416 96.2337 82.6916 99.801 81.3871 103.615M213.453 98.5446L216.226 97.0382M216.226 97.0382C214.376 93.2625 212.71 89.4068 211.226 85.4742C209.751 81.5543 208.485 77.5576 207.428 73.4871C206.412 69.5769 204.985 65.8269 203.149 62.2372C201.216 58.4552 198.646 55.1956 195.441 52.4616C192.3 49.8014 189.505 46.8463 187.059 43.5995C184.527 40.2117 182.482 36.5547 180.921 32.622C179.758 29.6509 178.598 26.683 177.444 23.7119C176.322 20.8369 175.162 17.9811 173.966 15.1382C172.374 11.3466 169.697 8.64789 165.938 7.04534C162.092 5.41074 158.191 5.24087 154.239 6.53252C150.37 7.78251 146.858 9.67993 143.694 12.2216C141.226 14.2087 139.053 16.4779 137.172 19.0324C135.015 21.9907 132.851 24.9458 130.682 27.8945C128.502 30.8753 126.259 33.7823 123.951 36.6124M216.226 97.0382L219.601 94.9004M93.5665 103.615C94.9222 99.7048 96.8421 96.067 99.3196 92.7017C101.82 89.3267 104.752 86.3972 108.118 83.9197C110.778 81.9742 113.534 80.1601 116.387 78.471C119.473 76.6441 122.55 74.8012 125.617 72.9422C127.733 71.6506 129.842 70.3429 131.941 69.0224C134.563 65.6955 136.928 62.2051 139.031 58.5513C141.137 54.8975 142.957 51.1155 144.496 47.2053C145.938 43.5611 147.781 40.1476 150.024 36.965C151.137 35.3848 152.467 34.0547 154.015 32.9746C155.37 32.0355 156.874 31.6221 158.518 31.7406C162.717 31.997 165.537 34.1349 166.979 38.1508C168.357 41.9873 169.473 45.9136 170.329 49.9296C171.184 53.9456 172.21 57.9263 173.406 61.8686C174.601 65.8333 175.963 69.7211 177.492 73.5352C179.063 77.455 180.633 81.378 182.204 85.2979C183.774 89.2081 185.351 93.1183 186.931 97.0285C187.627 98.7497 188.104 100.5 188.367 102.278M188.367 102.278L194.136 101.67M188.367 102.278L179.569 105.974C179.713 102.503 179.008 99.2176 177.46 96.1183C176.498 94.2049 175.665 92.2305 174.96 90.1889C173.656 86.3524 172.322 82.5383 170.954 78.7466C169.64 75.0928 168.229 71.4711 166.723 67.8814C165.986 66.1185 165.447 64.3077 165.104 62.4487C164.665 60.0449 163.918 57.7436 162.861 55.5417C162.156 54.0578 161.236 52.7148 160.104 51.5193C159.047 52.984 158.085 54.4744 157.22 55.9904C155.242 59.4744 153.604 63.0993 152.3 66.8717C150.963 70.7499 149.438 74.5704 147.717 78.33C146.265 81.5127 144.71 84.6376 143.053 87.7049C142.294 89.1055 141.345 90.3812 140.201 91.535C137.787 93.9292 135.377 96.333 132.973 98.7465C130.419 101.33 128.198 104.176 126.313 107.278M194.136 101.67C193.639 97.5926 192.867 93.567 191.819 89.5927C191.008 86.4934 190.05 83.4485 188.95 80.4582C187.691 76.9967 186.444 73.5255 185.216 70.0416C183.796 66.0352 182.139 62.141 180.248 58.359C178.348 54.577 176.306 50.8591 174.127 47.2053C171.979 43.6252 170.002 39.9393 168.197 36.1477C166.444 32.4618 164.55 28.8496 162.508 25.3144C161.963 24.3625 161.217 23.6221 160.265 23.0869C157.39 21.4843 154.438 21.3818 151.403 22.7824C149.149 23.8305 147.338 25.4651 145.97 27.6862C144.838 29.5035 143.742 31.3464 142.685 33.215C140.707 36.6989 138.871 40.2502 137.172 43.8719C135.739 46.9072 134.117 49.827 132.3 52.6379C130.175 55.9295 127.98 59.1699 125.714 62.3654C123.236 65.8589 120.307 68.8974 116.932 71.4839C113.704 73.9198 110.275 76.0608 106.643 77.9101C104.441 79.0319 102.381 80.3556 100.457 81.8844C97.1338 84.4806 94.2556 87.503 91.8197 90.9549C89.4159 94.3747 87.5473 98.0766 86.2108 102.061C85.9448 102.839 85.6883 103.625 85.4416 104.41M194.136 101.67L199.681 101.019M164.383 38.7694C163.72 36.8624 162.483 35.5739 160.665 34.9009C159.415 34.4425 158.181 34.4778 156.963 35.013C155.896 35.5034 155.018 36.2694 154.335 37.3047C152.037 40.8079 149.912 44.4104 147.957 48.1059C145.992 51.8238 144.249 55.6379 142.733 59.5481C141.268 63.2884 139.454 66.8333 137.284 70.189C135.146 73.5223 132.685 76.6313 129.896 79.5159C127.002 82.487 123.832 85.1248 120.393 87.4325C117.518 89.3459 114.714 91.3908 111.98 93.5702C108.679 96.1984 105.723 99.1567 103.118 102.448C102.679 103.003 102.374 103.634 102.204 104.339C102.098 104.798 102.002 105.262 101.916 105.727L109.223 106.192C110.611 102.98 112.743 100.323 115.618 98.2176C117.307 96.9901 118.928 95.6632 120.489 94.2433C123.576 91.4324 126.595 88.5318 129.544 85.5415C132.557 82.4966 134.912 79.0127 136.611 75.0928C137.637 72.7435 138.653 70.3877 139.656 68.0256C140.98 64.907 142.348 61.7756 143.758 58.6346C145.499 54.7565 147.374 50.9424 149.383 47.1924C150.752 44.6187 152.322 42.1668 154.095 39.8367C155.611 37.8496 157.54 36.4489 159.88 35.638C160.351 35.4778 160.793 35.5355 161.21 35.8143C162.396 36.638 163.454 37.622 164.383 38.7726C165.098 40.0707 165.761 41.3816 166.37 42.7053C167.492 45.1732 168.351 47.7437 168.95 50.4136C169.752 53.9937 170.656 57.5385 171.659 61.0545C172.822 65.1025 174.095 69.1153 175.473 73.0896C176.595 76.3492 177.755 79.596 178.95 82.8331C179.902 85.4068 180.963 87.9229 182.139 90.3812C183.966 94.2369 185.383 98.224 186.386 102.336M89.5601 104.096C89.8389 99.9836 91.1466 96.2433 93.4864 92.8779C95.8357 89.5126 98.637 86.5895 101.884 84.112C104.823 81.846 107.893 79.7915 111.098 77.9422C114.57 75.923 118.156 74.1377 121.851 72.5896C122.717 72.2147 123.476 71.7307 124.127 71.1313C126.829 68.6538 129.246 65.9327 131.371 62.9743C132.675 61.1699 133.848 59.2885 134.896 57.3334C135.899 55.452 136.925 53.577 137.973 51.7084C140.056 47.9905 142.149 44.2726 144.255 40.5547C145.496 38.3848 146.765 36.2374 148.069 34.1124C150.024 30.9169 152.845 29.1509 156.531 28.808C159.713 28.5612 162.322 29.6092 164.351 31.949C165.656 33.4554 166.761 35.106 167.668 36.9009C169.367 40.2342 170.607 43.7277 171.386 47.3815C171.46 47.7437 171.588 48.0963 171.771 48.4392C173.672 52.0834 175.168 55.9071 176.258 59.9135C177.38 64.016 178.652 68.0705 180.072 72.0768C181.13 75.08 182.245 78.0704 183.421 81.0511C184.8 84.5447 186.162 88.0543 187.508 91.5799C188.736 94.8074 189.591 98.1247 190.072 101.532M147.284 7.26969C150.778 5.15433 154.582 4.22485 158.694 4.48126C163.063 4.6319 166.883 6.13188 170.152 8.98442C173.229 11.6543 175.707 14.8081 177.588 18.4395C179.341 21.8144 181.024 25.2247 182.636 28.6637C184.409 32.4554 186.418 36.0996 188.662 39.5931C190.832 42.9809 193.348 46.0771 196.21 48.8879C197.61 50.2565 199.03 51.5706 200.473 52.8302C203.367 55.3622 205.931 58.1987 208.165 61.3397C209.864 63.7115 211.059 66.3012 211.755 69.1121C212.043 70.2884 212.306 71.4743 212.54 72.6698C212.902 74.4967 213.565 76.1954 214.527 77.7659C214.998 78.5447 215.296 79.3748 215.424 80.2498C215.767 82.6857 216.232 85.0895 216.819 87.4613C216.937 87.9645 217.085 88.4613 217.267 88.9517C218.037 90.9292 218.815 92.91 219.601 94.8972L221.867 93.4452C221.492 91.7626 221.12 90.0767 220.745 88.3876C220.008 85.0126 219.319 81.6248 218.678 78.2274C217.972 74.4871 216.972 70.8461 215.681 67.298C214.303 63.5384 212.274 60.1442 209.591 57.1218C207.027 54.2148 204.303 51.4712 201.418 48.8847C198.492 46.2662 195.803 43.42 193.357 40.3431C190.752 37.0643 188.492 33.5643 186.579 29.8464C184.902 26.5997 183.271 23.3401 181.691 20.0709C179.982 16.5549 177.893 13.2985 175.425 10.2953C174.954 9.70878 174.425 9.20558 173.838 8.78891C170.386 6.31137 166.707 4.18639 162.797 2.41717M162.797 2.41717C162.678 2.66717 162.668 2.65114 162.765 2.36268C162.765 2.38512 162.774 2.40115 162.797 2.41717ZM162.55 1.83064L162.886 1.9973M162.886 1.9973C167.22 1.96525 171.146 3.15755 174.672 5.57099C177.684 7.63187 179.998 10.2921 181.611 13.5517C182.55 15.4427 183.524 17.3241 184.527 19.1927C186.514 22.933 188.405 26.7182 190.2 30.5548C190.787 31.8047 191.409 33.0387 192.059 34.2566C192.838 35.7086 193.816 36.9906 194.992 38.1028C197.95 40.8688 201.171 43.2245 204.655 45.17C205.649 45.7149 206.54 46.3303 207.332 47.0129C208.86 48.3495 210.216 49.8655 211.402 51.5642C213.828 55.0674 215.626 58.8494 216.803 62.9102C217.806 66.3493 218.508 69.8429 218.902 73.3909C219.287 76.83 219.992 80.2018 221.017 83.503C221.892 86.3459 223.011 89.0959 224.367 91.7561M162.886 1.9973L163.473 2.30179M210.937 13.5196C210.937 13.2953 211.03 13.1062 211.219 12.9523C211.408 12.7985 211.633 12.7184 211.899 12.7184M201.771 17.526L203.213 17.3658M199.207 19.2888L199.848 19.1286M194.719 27.6381C196.729 31.2182 199.261 34.3688 202.316 37.0932C205.319 39.7854 208.495 42.247 211.851 44.4809C212.514 44.92 213.139 45.4264 213.726 46.0033C216.684 48.9841 219.094 52.3494 220.953 56.0994C222.61 59.4231 223.767 62.8942 224.431 66.516C225.081 70.1602 225.77 73.7916 226.498 77.4133C227.341 81.5896 228.46 85.6953 229.857 89.7305M229.857 89.7305L231.892 89.144C231.556 87.4677 231.206 85.8011 230.841 84.144C230.104 80.7883 229.341 77.4518 228.549 74.1281C227.931 71.564 227.277 69.016 226.594 66.4839C225.655 62.9583 224.52 59.5128 223.197 56.1475C221.937 52.9744 220.418 49.936 218.646 47.029C217.95 45.8976 217.107 44.9136 216.114 44.0803C213.014 41.4297 209.902 38.8303 206.771 36.2759C204.184 34.1509 201.662 31.9105 199.2 29.5612L188.021 23.3849C190.498 26.7022 192.851 30.0964 195.072 33.5675C196.441 35.6925 198.143 37.4874 200.184 38.9521C202.13 40.3399 204.085 41.7341 206.049 43.1348C209.373 45.5065 212.245 48.3206 214.671 51.5802C217.065 54.7949 218.831 58.3205 219.976 62.157C220.767 64.8269 221.498 67.548 222.171 70.314C223.165 74.3941 224.19 78.471 225.248 82.5415C225.944 85.2113 226.748 87.8395 227.668 90.426L229.857 89.7305ZM211.578 32.2855L212.219 31.6445M209.335 24.9138L209.976 25.7151M212.059 21.5324H212.7M231.889 89.144L237.697 87.0126C235.719 85.7626 233.979 84.2947 232.472 82.6056C232.056 82.1473 231.726 81.6056 231.479 80.987C230.069 77.4069 228.835 73.7531 227.777 70.0256C226.879 66.875 226.165 63.6699 225.629 60.4103C225.245 58.0385 224.722 55.6924 224.059 53.3751C222.883 49.327 220.758 45.8367 217.681 42.9104C216.742 42.0034 215.735 41.17 214.668 40.4104C210.832 37.6444 206.976 34.9201 203.098 32.2374C201.793 31.34 200.495 30.449 199.197 29.5612M185.425 20.4106L188.021 23.3817M115.409 106.259C118.198 103.182 121.146 100.259 124.255 97.4933C127.342 94.7273 130.531 92.0831 133.823 89.5607C134.614 88.9613 135.223 88.2049 135.649 87.285C137.069 84.2722 138.348 81.1889 139.48 78.0383C140.762 74.439 141.813 70.7691 142.637 67.0288C143.415 63.4807 144.582 60.0577 146.13 56.7565C147.935 52.9007 149.97 49.1604 152.236 45.5386C153.54 43.4553 154.97 41.5002 156.531 39.6733C158.06 37.9105 159.922 37.3496 162.124 37.9906C162.957 38.2149 163.598 38.6957 164.047 39.4329C166.162 42.9489 167.524 46.7309 168.133 50.7789C168.7 54.4872 169.357 58.1763 170.104 61.8526C170.938 65.9775 171.986 70.048 173.245 74.064C174.495 78.0287 176.024 81.8748 177.829 85.6024C179.454 88.9677 180.867 92.3972 182.075 95.8907C182.95 98.4003 183.639 100.977 184.143 103.615M122.589 107.038L109.223 106.189L109.127 106.5M122.589 107.038C124.791 103.602 127.3 100.394 130.121 97.4132C132.204 95.2433 134.297 93.0542 136.403 90.8427C136.797 90.4357 137.124 89.9773 137.38 89.4645C139.23 85.6825 141.034 81.8844 142.797 78.0704C144.569 74.2563 146.322 70.4262 148.053 66.5801C149.582 63.1827 150.96 59.7468 152.188 56.2757C153.191 53.4231 154.351 50.6091 155.665 47.8302C156.883 45.2758 158.797 43.5354 161.402 42.6059C162.309 43.4809 163.053 44.4649 163.63 45.5546C164.537 47.2437 165.063 49.0482 165.2 50.9712C165.255 51.7084 165.335 52.452 165.441 53.1988C165.633 54.4584 165.864 55.7212 166.13 56.9808C166.931 60.6987 167.877 64.375 168.966 68.0064C170.482 73.0704 172.293 78.0383 174.399 82.9101C175.563 85.6344 176.755 88.3491 177.973 91.051C179.938 95.41 181.139 99.9708 181.579 104.737M122.589 107.038L126.313 107.278M126.313 107.278L144.053 109.458C144.197 107.903 145.069 106.737 146.672 105.958C147.111 105.756 147.521 105.487 147.906 105.157C151.037 102.455 153.403 99.1792 155.005 95.333C156.566 91.5735 157.899 87.7113 159.011 83.7466C159.332 82.6344 159.829 81.5992 160.502 80.6377L160.742 84.8524C163.233 88.3043 164.902 92.1215 165.758 96.3106C165.877 96.91 166.069 97.4805 166.335 98.0253C168.011 101.359 168.713 104.878 168.434 108.586M126.313 107.278L126.275 107.461M129.8 107.301C132.579 104.137 135.345 100.964 138.101 97.7817C140.858 94.6183 143.582 91.426 146.274 88.1985C148.486 85.5286 150.008 82.4774 150.842 79.0479C151.332 77.0063 151.957 74.9935 152.717 73.0063C154.233 69.064 156.104 65.298 158.326 61.7083C158.925 60.7468 159.543 59.8077 160.184 58.8878C160.258 58.7917 160.351 58.7116 160.457 58.6475C160.627 58.734 160.771 58.8398 160.89 58.968C161.188 59.2789 161.434 59.625 161.627 60.0096C162.694 62.2115 163.325 64.5673 163.518 67.0769C163.55 67.4615 163.656 67.8301 163.838 68.1826C164.277 69.048 164.704 69.9038 165.12 70.7467C165.72 71.9743 166.184 73.2467 166.515 74.5608C167.124 76.9742 167.95 79.3588 168.999 81.7082C172.694 90.0639 175.287 98.7401 176.771 107.74M176.771 107.74L179.566 105.971L179.175 106.5M176.771 107.74L174.047 108.214M133.646 107.621C136.073 104.875 138.496 102.134 140.922 99.4003C143.582 96.3875 146.217 93.3491 148.822 90.2818C150.467 88.3491 151.681 86.1729 152.46 83.7594C153.582 80.3396 154.681 76.9165 155.761 73.4871C156.284 71.8108 156.867 70.1762 157.508 68.5833C158.095 67.0993 158.893 65.7307 159.896 64.4807C160.079 64.6314 160.255 64.7916 160.425 64.9615C160.723 65.2596 160.96 65.641 161.13 66.0993C163.236 71.7723 165.2 77.5159 167.027 83.3267C167.851 85.9325 168.688 88.535 169.543 91.1312C171.04 95.7369 172.354 100.4 173.486 105.121C173.732 106.137 173.918 107.166 174.047 108.214M174.047 108.214L171.329 108.679M139.095 108.743C139.425 105.452 141.076 103.016 144.047 101.436C144.784 101.041 145.467 100.561 146.098 99.9933C149.12 97.2369 151.601 94.0382 153.534 90.394C155.351 86.9645 156.845 83.4005 158.021 79.705C158.781 77.3556 159.543 75.0095 160.313 72.6698C160.441 72.2627 160.617 71.8749 160.842 71.4999C161.428 74.939 162.444 78.237 163.886 81.3876C164.559 82.8396 165.098 84.3428 165.505 85.8908C166.691 90.4645 168.015 94.9869 169.479 99.4644C170.175 101.589 170.736 103.743 171.162 105.923C171.332 106.83 171.39 107.75 171.329 108.679M171.329 108.679L171.322 108.903M118.095 41.6124L118.743 41.2598M118.095 41.6124C116.249 42.8527 114.553 44.2309 113.005 45.7469C110.977 47.7245 108.961 49.7116 106.964 51.7084C103.993 54.6892 101.009 57.6475 98.0055 60.5865C96.3613 62.1891 94.6979 63.7756 93.0216 65.3461C92.5953 65.7307 92.1146 66.0577 91.5793 66.3237C90.0633 67.1474 88.512 67.9166 86.9319 68.6313C85.2108 69.4102 83.7044 70.4839 82.4127 71.8525C80.1275 74.2467 77.8358 76.6217 75.5378 78.9838C72.8359 81.7723 69.8648 84.2658 66.6276 86.4677L66.6436 86.612M118.095 41.6124C116.701 44.561 114.912 47.2309 112.733 49.6251C109.903 52.7661 106.906 55.7372 103.743 58.5353C100.602 61.3237 97.3261 63.9743 93.919 66.4839C90.7556 68.7916 87.7268 71.2691 84.8326 73.9198C81.9256 76.5704 79.182 79.362 76.5955 82.3011M76.5955 82.3011C76.0186 84.2787 75.0955 86.0895 73.8231 87.7338C73.4064 88.2562 72.916 88.7273 72.3487 89.144C69.5186 91.269 67.1885 93.8459 65.3616 96.8683M76.5955 82.3011L76.4032 82.6056M73.5346 80.2018C75.0955 76.4101 77.3551 73.0928 80.3134 70.2499C82.4191 68.2403 84.7428 66.5256 87.2845 65.1057C90.1691 63.4807 92.855 61.5737 95.3453 59.3846C98.028 57.0032 100.65 54.5289 103.214 51.9648C105.179 50.0001 107.188 48.0802 109.239 46.2117C110.211 45.3046 111.275 44.4873 112.428 43.7598C114.255 42.6059 116.146 41.5579 118.102 40.6188M71.291 82.2851C71.8455 77.9678 73.416 74.0704 76.0025 70.5865C78.3519 67.4134 81.2365 64.8654 84.6563 62.9423C86.4608 61.9167 88.1915 60.8013 89.8486 59.593C93.1723 57.1475 96.2748 54.4488 99.1594 51.5001C101.169 49.4488 103.239 47.4456 105.377 45.4905C108.271 42.8207 111.505 40.7149 115.073 39.1765C116.698 38.4938 118.348 37.904 120.025 37.4137M97.887 104.945C99.0793 101.195 100.881 97.7721 103.297 94.6728C105.22 92.2049 107.441 90.0478 109.964 88.1985C113.339 85.7306 116.662 83.144 119.932 80.4421C122.794 78.0928 125.515 75.6089 128.089 72.9903C129.38 71.6762 130.666 70.3525 131.944 69.0224M144.056 109.458L151.749 109.346M151.749 109.346C152.447 106.413 153.87 103.868 156.021 101.711C156.694 101.029 157.175 100.221 157.463 99.2913C158.415 96.2561 159.563 93.3138 160.909 90.4613C161.624 93.7305 162.585 96.9035 163.793 99.9804C164.04 100.612 164.322 101.237 164.643 101.855C165.691 103.929 166.027 106.102 165.652 108.378C165.62 108.58 165.483 108.705 165.236 108.746M151.749 109.346L171.332 108.682M148.406 117.076H144.239M143.117 122.205H139.576M155.297 116.115L151.451 116.596M155.136 124.769L151.771 124.929M120.666 123.951L128.037 124.272M114.896 119.945L123.069 120.426M117.621 117.06L125.954 117.862M132.044 131.179H123.246M133.967 145.762H128.518M132.845 138.23H127.236M122.428 141.916L113.454 141.756M110.89 136.307L116.499 136.467M118.743 131.019H111.531M159.143 131.66L157.22 131.82M161.386 142.557L156.899 142.878M156.579 136.307L152.572 136.628M143.278 137.108L140.217 137.269M148.887 147.365L140.056 147.525M149.528 130.698L140.874 131.179M138.454 119.48L129.96 120.442M134.768 143.038L142.637 142.717M198.566 108.743L190.072 110.506M195.2 129.737L191.835 130.538M194.078 118.038L191.194 118.519M211.899 125.089L206.049 127.269M204.175 117.878L206.29 117.557M178.373 110.025L187.348 106.66M186.867 129.416L184.944 129.897M175.809 124.608L169.239 125.249M175.809 113.391L170.2 114.673M172.925 142.397L168.918 142.878M176.611 135.025L170.841 135.666M176.29 145.762L171.963 146.243M207.572 141.756L203.213 142.557M211.258 136.788L202.732 138.599M208.373 133.583L205.136 134.384M197.925 143.679L193.421 144.432M197.604 138.871L194.575 139.506M194.575 139.506C194.264 139.522 194.248 139.519 194.527 139.496C194.537 139.496 194.553 139.496 194.575 139.506ZM189.591 144.32L181.418 145.281M188.309 134.704L180.297 135.987M165.553 146.563L155.457 147.525M166.354 136.307L160.265 136.948M296.033 65.282L297.956 64M305.167 61.1154L305.808 60.6346M283.212 39.497L284.334 38.856M274.559 42.8623L275.68 42.3816M265.584 37.0932L267.988 35.9714M270.552 65.4423L271.994 64.1602M266.546 56.9648L267.668 56.3238M272.796 53.9199L273.597 53.4392M280.007 60.6346L281.449 59.6731M280.167 51.5161L281.449 50.7148M285.296 80.6825L287.058 79.721M281.93 71.8525L282.892 71.2115M267.347 78.2787L268.789 76.9967M275.039 74.1121L275.68 73.6313M275.68 85.0094L277.603 83.8876M268.309 91.7561L269.11 90.7946M268.629 94.3202L269.43 93.9997M281.289 96.067L281.738 95.3619L282.571 94.9452M306.289 82.2851L307.411 81.8043M314.462 78.2787H314.943M306.289 71.2115L308.052 69.9294M295.392 74.9133L296.513 73.9518M301.962 97.3491L302.283 97.0285M298.276 87.0927L299.078 86.4517M310.936 94.144L312.218 93.1824M290.264 90.9389L292.347 89.8171M290.584 37.2534L291.866 36.9329M255.007 41.42L256.289 40.6188M241.866 45.9072L243.149 45.2662M248.437 43.8239L249.238 43.1828M242.988 37.5739L244.431 37.0932M247.956 53.5994L248.757 53.1187M242.988 58.4071L244.431 57.7661M254.126 61.7724L257.732 59.6891M251.802 51.1956L252.443 50.7148M233.533 41.2598L233.854 40.9393M235.617 49.593L237.379 48.6315M232.411 63.6955L233.373 64.3365M229.687 53.5994L230.328 54.2404M227.444 53.9199L223.758 47.3335M234.655 77.9582L232.091 72.3493M221.867 93.4484L227.668 90.4292M260.136 69.4486L262.86 67.5256M254.687 79.8813L255.328 79.08M248.277 74.9133V75.3941M244.591 76.9967L244.014 74.096M247.796 85.9709C247.796 85.394 247.658 84.9036 247.379 84.4966C247.1 84.0895 246.764 83.8876 246.37 83.8876M235.777 91.7401C238.575 90.6183 241.097 89.0639 243.341 87.0767C243.382 87.0447 243.421 87.003 243.453 86.9485C243.453 86.8107 243.421 86.7177 243.357 86.6761C242.354 86.0126 241.322 85.4036 240.264 84.8492M244.399 95.1055L243.758 97.0285M260.136 97.9901L263.18 93.6632M257.411 88.2145L258.693 85.0094M250.681 95.9068L253.405 92.5414M251.931 85.4902L252.732 84.8492M238.149 77.6377L241.033 80.8428M238.95 67.0929L241.225 67.7019M252.123 67.5416L252.764 67.2211M262.379 107.285L264.302 104.881M257.571 101.836L256.129 103.759M243.918 113.375L246.161 111.894M246.161 111.894C246.139 111.75 246.168 111.724 246.241 111.823L246.161 111.894ZM243.79 107.125L244.911 105.362M250.36 114.657L253.485 112.333M236.578 113.375L238.341 111.932M234.014 106.484L235.456 105.202M222.476 114.993L213.822 118.519M222.155 121.564L218.469 123.006M230.008 125.089L232.251 124.128M224.879 105.522L231.45 100.554M226.322 117.397L226.803 117.237M238.982 134.384L233.998 135.922M231.61 131.179L229.046 132.301M232.251 136.628L230.488 137.269M224.719 133.102L221.033 134.384M223.437 139.031L213.662 140.954M223.277 129.737L214.303 132.301M305.167 108.246C305.167 108.16 305.199 108.086 305.263 108.022C305.327 107.958 305.401 107.926 305.488 107.926M310.776 105.202L311.577 104.721M299.558 110.81L300.36 110.33M303.404 117.381L311.417 112.734M278.565 106.163L279.366 105.682M284.494 103.759L286.257 102.958M271.193 100.875L272.315 99.1119M271.033 108.086L272.796 106.484M292.988 99.9131L295.392 98.6311M264.623 48.1508L265.744 47.67M222.956 99.5926L226.803 96.067M214.944 107.621L207.251 109.544M35.7144 38.5194C38.7272 35.7214 42.1182 33.5195 45.8906 31.9169C46.1887 31.7983 46.4836 31.6765 46.772 31.5483M49.0156 34.9938L51.4194 33.5515M59.9129 34.9938L64.0796 33.3272M83.1499 31.949L88.7588 30.6669M0.923049 77.3172V76.5159M1.72432 72.9903L3.00636 69.9454M1.56407 88.3748L0.602539 81.8043M87.1563 40.6188L90.0409 36.9169M60.5539 41.0995L64.0796 39.8175M57.8296 46.6924L60.5539 46.3719M90.0569 42.8623C88.0794 46.4937 85.2492 49.2084 81.5634 51.0033C79.1179 52.1892 76.5634 53.077 73.9032 53.6635C72.7077 53.9616 71.541 54.3622 70.4096 54.8654C66.5411 56.6058 63.2046 59.0577 60.3937 62.2211C58.4482 64.4327 56.9001 66.9006 55.7463 69.6249M63.5988 46.8687L72.5731 43.8239M64.5603 53.9199L78.9833 48.1508M59.1117 94.3042L61.0347 96.5478M63.0635 94.2337C65.1629 90.4453 68.2173 87.7562 72.2237 86.1665C73.5282 85.6536 74.7173 84.9485 75.7974 84.0511M79.1435 41.5803L85.714 36.7566M44.849 42.0611L49.4963 39.0002M45.0092 47.9905L50.7784 44.3046M36.5157 42.3816L39.24 40.779M38.4388 60.9712L44.2079 56.484M42.4451 62.8942L43.8874 61.4519M47.8938 61.6122L51.0989 59.8494M32.6696 55.843L37.317 51.3559M51.4194 52.4776L55.586 49.9136M20.1537 49.593L29.6247 42.2213M9.41657 60.3301L15.6665 53.4392M12.1409 65.7788L12.4614 64.9775M16.628 59.2084L17.7498 57.4455M21.2754 60.8109L24.16 57.125M21.2754 53.5994L24.16 51.0353M28.0222 53.1187L31.5478 49.593M19.8331 79.5607L20.4742 75.0736M30.1055 75.2339L29.3042 72.3493M13.2627 88.8555C11.7787 85.8011 11.5255 82.6473 12.5095 79.4005C12.5415 79.2947 12.58 79.1857 12.6217 79.08M7.81402 76.5159L10.2178 69.4647M17.2691 86.612L15.987 83.4069M8.61529 89.8171L7.81402 85.9709M18.3908 97.3491L14.8652 92.0606M21.4357 83.8876C22.1408 87.4998 23.7209 90.676 26.1792 93.4228C26.253 93.4965 26.3299 93.5766 26.4036 93.6632M32.9901 101.676L28.6632 97.3491M28.6632 97.3491C28.5126 97.1888 28.5029 97.1664 28.6311 97.2849C28.6408 97.3074 28.6536 97.3266 28.6632 97.3491ZM48.5348 82.7658L47.413 76.5159M53.8232 74.1121C52.4867 76.0768 52.1662 78.3011 52.8617 80.7787C53.0764 81.5703 53.3425 82.3396 53.663 83.0864M39.881 77.1569V75.2339M40.2016 70.907L41.0028 68.0224M49.0156 94.3042C46.5477 92.5094 44.8746 90.1536 43.9996 87.237C43.9579 87.0767 43.9195 86.9229 43.8874 86.7722M36.9965 95.9068L33.9516 92.8619M36.5477 87.3171L39.24 89.4966M54.7848 87.253L56.7078 90.9389M51.0989 89.4966L54.7848 95.5862M46.772 97.9901L43.7272 95.426M41.8041 83.7274L41.3233 79.721M32.9901 80.0415L34.4324 84.0479M23.1985 68.3429L25.9228 62.8942M48.0701 71.1954L51.2592 65.7788M28.1824 80.2018C29.0158 83.7274 30.7209 86.7562 33.2946 89.2882M14.705 71.8685L17.4293 66.4198M31.708 67.5416L32.8298 65.9391M57.3488 105.202L49.0156 101.035M52.2207 108.246L50.2976 107.125M41.3233 108.246L37.317 105.362M44.2079 102.637L40.5221 99.9131M39.4003 111.772L36.9324 110.41M53.022 125.073L48.5348 122.99M45.6502 122.028L41.3233 119.865M47.5733 127.493L42.7656 125.714M37.6375 116.9L32.1888 113.214M47.7335 111.612L44.5284 110.169M54.7848 115.618L51.4034 114.4M45.6502 115.458L42.7656 114.176M25.2818 105.843L21.3716 101.996M11.0191 105.522L7.81402 101.676M13.9037 109.689L19.9613 115.41M24.9613 113.375L17.9101 107.766M28.4869 116.516L34.5285 120.394M33.9516 124.913L24.801 119.144M45.3297 132.301L37.6375 128.455M95.6658 109.448L88.2781 109.048M86.355 125.554L89.7204 126.035M92.6049 118.182L95.9863 118.503M91.9639 122.028L101.114 122.99M72.5731 108.407L79.464 110.009M75.9384 114.176L78.823 114.657M70.009 106.484L65.0892 104.689M63.5988 108.567L68.2462 110.169M66.6436 129.897L60.2655 128.134M77.2205 119.464L83.1499 120.266M74.3359 116.74L64.2398 114.336M74.0154 127.012L67.2847 125.394M82.3486 133.903L80.5858 133.583M76.9 132.942L75.1372 132.621M78.6628 136.948L74.9769 136.307M74.8166 141.756L66.8039 139.993M70.8103 135.346L63.1661 133.278M86.996 135.025L84.5922 134.544M99.1754 139.993L90.8421 138.871M96.3068 134.865L99.5119 135.346M88.5986 130.057L80.5858 128.935M82.1884 112.093L90.3614 113.214M91.1627 144.801L81.7076 143.839M86.0345 138.23L81.7076 137.269M54.304 130.346L58.3104 131.499M49.4963 134.224L58.4706 137.429M60.8745 113.375L56.5476 111.451M60.8745 101.355L55.4258 98.6311M60.8745 122.99L53.663 120.746M14.2242 102.637L8.66337 94.7048M55.1053 58.8878L59.5924 56.8045M6.37172 98.9516L3.3429 93.2305M4.92942 66.2596L6.69223 63.375M68.727 35.9553L71.9321 34.8336M106.884 118.823L111.531 119.464M110.89 141.756L103.518 140.794M103.038 126.676L110.57 127.493M104.961 115.778L112.332 116.099M99.9927 110.65L112.973 111.612M316.545 102.317L317.507 101.836M316.866 109.528L319.43 108.407M157.204 105.538L157.46 107.317L162.524 107.173C162.547 107.044 162.566 106.923 162.588 106.804C162.652 106.452 162.636 106.115 162.54 105.794C162.092 104.416 161.082 103.769 159.511 103.855C159.297 103.855 159.088 103.865 158.886 103.887L157.204 105.538Z" stroke="#161819" stroke-width="0.5" stroke-linecap="round" stroke-linejoin="round"/>
</svg>
